<svg xmlns="http://www.w3.org/2000/svg" viewBox="0 0 680 340" width="680" height="340" role="img" aria-labelledby="title desc">
<title id="title">maketrack stacked lockup</title>
<desc id="desc">Build wedge centered above the maketrack wordmark</desc>
<rect x="310.0" y="50.0" width="60.0" height="14.0" fill="#C8252C"/>
<rect x="295.0" y="68.0" width="90.0" height="14.0" fill="#C8252C"/>
<rect x="280.0" y="86.0" width="120.0" height="14.0" fill="#C8252C"/>
<rect x="265.0" y="104.0" width="150.0" height="14.0" fill="#C8252C"/>
<rect x="250.0" y="122.0" width="180.0" height="14.0" fill="#C8252C"/>
<rect x="235.0" y="140.0" width="210.0" height="14.0" fill="#C8252C"/>
<rect x="220.0" y="158.0" width="240.0" height="14.0" fill="#C8252C"/>
<rect x="190.0" y="176.0" width="300.0" height="16.0" fill="#1F2937"/>
<path d="M115 0V1118H436L451 894Q475 959 510 1004Q561 1071 629.5 1102.0Q698 1133 774 1133Q894 1133 968 1056Q1025 995 1062 874Q1088 944 1127 994Q1185 1067 1263.0 1100.0Q1341 1133 1425 1133Q1530 1133 1610.5 1087.5Q1691 1042 1737.0 957.5Q1783 873 1783 754V0H1435V675Q1435 760 1390.5 804.0Q1346 848 1277 848Q1228 848 1191.5 826.0Q1155 804 1136.0 764.5Q1117 725 1117 671V0H782V680Q782 757 739.0 802.5Q696 848 626 848Q578 848 541.5 826.0Q505 804 484.5 763.5Q464 723 464 664V0Z" fill="#1F2937" transform="translate(149.09 290) scale(0.037109 -0.037109)"/>
<path d="M428 -20Q321 -20 237.5 16.5Q154 53 107.0 126.5Q60 200 60 310Q60 403 92.5 467.0Q125 531 183.0 571.0Q241 611 316.0 632.0Q391 653 476 660Q571 668 629.0 677.5Q687 687 714.0 706.0Q741 725 741 759V763Q741 802 723.0 829.0Q705 856 671.0 870.0Q637 884 589 884Q541 884 503.5 870.0Q466 856 442.0 830.0Q418 804 408 769L92 810Q114 906 178.5 978.5Q243 1051 347.5 1091.5Q452 1132 592 1132Q696 1132 786.5 1107.5Q877 1083 945.0 1035.5Q1013 988 1051.0 918.5Q1089 849 1089 759V0H761V157H752Q722 99 675.5 60.0Q629 21 567.5 0.5Q506 -20 428 -20ZM534 211Q593 211 640.5 235.0Q688 259 716.0 301.0Q744 343 744 398V505Q729 497 706.5 490.0Q684 483 657.0 477.5Q630 472 603.0 467.5Q576 463 551 459Q500 452 464.0 435.0Q428 418 409.0 391.0Q390 364 390 326Q390 289 409.0 263.5Q428 238 460.0 224.5Q492 211 534 211Z" fill="#1F2937" transform="translate(217.061 290) scale(0.037109 -0.037109)"/>
<path d="M115 0V1490H464V714H480L800 1118H1197L798 630L1213 0H810L538 427L464 338V0Z" fill="#1F2937" transform="translate(259.277 290) scale(0.037109 -0.037109)"/>
<path d="M636 -21Q461 -21 334.0 48.5Q207 118 139.5 247.0Q72 376 72 555Q72 727 139.5 857.0Q207 987 331.0 1059.5Q455 1132 623 1132Q741 1132 839.5 1095.0Q938 1058 1010.5 985.5Q1083 913 1122.5 807.0Q1162 701 1162 562V474H415Q418 399 444 347Q472 289 523.0 260.5Q574 232 642 232Q689 232 727.5 245.0Q766 258 793.5 284.0Q821 310 835 347L1146 296Q1118 200 1049.5 128.5Q981 57 876.5 18.0Q772 -21 636 -21ZM417 677H831Q825 725 810 763Q786 819 740.0 849.0Q694 879 626.0 879.0Q558 879 511.0 848.5Q464 818 440 764Q422 725 417 677Z" fill="#1F2937" transform="translate(301.828 290) scale(0.037109 -0.037109)"/>
<path d="M718 1118V859H517V342Q517 298 538.0 276.5Q559 255 606 255Q624 255 656.5 259.0Q689 263 703 267L748 13Q689 -4 634.0 -10.0Q579 -16 530 -16Q352 -16 260.0 67.5Q168 151 168 311V859H20V1118H168V1384H517V1118Z" fill="#C8252C" transform="translate(344.973 290) scale(0.037109 -0.037109)"/>
<path d="M115 0V1118H454V914H466Q496 1025 565.5 1078.5Q635 1132 727 1132Q751 1132 777.5 1129.0Q804 1126 826 1120V816Q801 825 760.5 829.5Q720 834 688 834Q624 834 573.0 805.5Q522 777 493.0 727.0Q464 677 464 610V0Z" fill="#C8252C" transform="translate(371.492 290) scale(0.037109 -0.037109)"/>
<path d="M428 -20Q321 -20 237.5 16.5Q154 53 107.0 126.5Q60 200 60 310Q60 403 92.5 467.0Q125 531 183.0 571.0Q241 611 316.0 632.0Q391 653 476 660Q571 668 629.0 677.5Q687 687 714.0 706.0Q741 725 741 759V763Q741 802 723.0 829.0Q705 856 671.0 870.0Q637 884 589 884Q541 884 503.5 870.0Q466 856 442.0 830.0Q418 804 408 769L92 810Q114 906 178.5 978.5Q243 1051 347.5 1091.5Q452 1132 592 1132Q696 1132 786.5 1107.5Q877 1083 945.0 1035.5Q1013 988 1051.0 918.5Q1089 849 1089 759V0H761V157H752Q722 99 675.5 60.0Q629 21 567.5 0.5Q506 -20 428 -20ZM534 211Q593 211 640.5 235.0Q688 259 716.0 301.0Q744 343 744 398V505Q729 497 706.5 490.0Q684 483 657.0 477.5Q630 472 603.0 467.5Q576 463 551 459Q500 452 464.0 435.0Q428 418 409.0 391.0Q390 364 390 326Q390 289 409.0 263.5Q428 238 460.0 224.5Q492 211 534 211Z" fill="#C8252C" transform="translate(400.906 290) scale(0.037109 -0.037109)"/>
<path d="M634 -21Q459 -21 333.0 51.5Q207 124 139.5 253.5Q72 383 72 555Q72 728 139.5 857.5Q207 987 333.0 1059.5Q459 1132 634 1132Q741 1132 830.0 1104.0Q919 1076 986.0 1024.5Q1053 973 1094.5 899.5Q1136 826 1149 735L827 681Q819 725 802.5 759.0Q786 793 762.5 817.0Q739 841 707.5 853.0Q676 865 638 865Q571 865 524.0 828.5Q477 792 452.5 722.5Q428 653 428 557Q428 461 452.5 391.0Q477 321 524.0 283.5Q571 246 638 246Q677 246 708.0 258.5Q739 271 763.5 295.5Q788 320 804.5 355.5Q821 391 828 436L1150 384Q1137 290 1095.5 215.5Q1054 141 987.0 88.0Q920 35 830.5 7.0Q741 -21 634 -21Z" fill="#C8252C" transform="translate(443.123 290) scale(0.037109 -0.037109)"/>
<path d="M115 0V1490H464V714H480L800 1118H1197L798 630L1213 0H810L538 427L464 338V0Z" fill="#C8252C" transform="translate(485.859 290) scale(0.037109 -0.037109)"/>
</svg>
