<svg xmlns="http://www.w3.org/2000/svg" viewBox="0 0 680 380" width="680" height="380" role="img" aria-labelledby="title desc">
<title id="title">maketrack stacked lockup</title>
<desc id="desc">Build wedge centered above the maketrack wordmark with tagline</desc>
<rect x="310.0" y="50.0" width="60.0" height="14.0" fill="#F5F2ED"/>
<rect x="295.0" y="68.0" width="90.0" height="14.0" fill="#F5F2ED"/>
<rect x="280.0" y="86.0" width="120.0" height="14.0" fill="#F5F2ED"/>
<rect x="265.0" y="104.0" width="150.0" height="14.0" fill="#F5F2ED"/>
<rect x="250.0" y="122.0" width="180.0" height="14.0" fill="#F5F2ED"/>
<rect x="235.0" y="140.0" width="210.0" height="14.0" fill="#F5F2ED"/>
<rect x="220.0" y="158.0" width="240.0" height="14.0" fill="#F5F2ED"/>
<rect x="190.0" y="176.0" width="300.0" height="16.0" fill="#F5F2ED"/>
<path d="M115 0V1118H436L451 894Q475 959 510 1004Q561 1071 629.5 1102.0Q698 1133 774 1133Q894 1133 968 1056Q1025 995 1062 874Q1088 944 1127 994Q1185 1067 1263.0 1100.0Q1341 1133 1425 1133Q1530 1133 1610.5 1087.5Q1691 1042 1737.0 957.5Q1783 873 1783 754V0H1435V675Q1435 760 1390.5 804.0Q1346 848 1277 848Q1228 848 1191.5 826.0Q1155 804 1136.0 764.5Q1117 725 1117 671V0H782V680Q782 757 739.0 802.5Q696 848 626 848Q578 848 541.5 826.0Q505 804 484.5 763.5Q464 723 464 664V0Z" fill="#F5F2ED" transform="translate(149.09 290) scale(0.037109 -0.037109)"/>
<path d="M428 -20Q321 -20 237.5 16.5Q154 53 107.0 126.5Q60 200 60 310Q60 403 92.5 467.0Q125 531 183.0 571.0Q241 611 316.0 632.0Q391 653 476 660Q571 668 629.0 677.5Q687 687 714.0 706.0Q741 725 741 759V763Q741 802 723.0 829.0Q705 856 671.0 870.0Q637 884 589 884Q541 884 503.5 870.0Q466 856 442.0 830.0Q418 804 408 769L92 810Q114 906 178.5 978.5Q243 1051 347.5 1091.5Q452 1132 592 1132Q696 1132 786.5 1107.5Q877 1083 945.0 1035.5Q1013 988 1051.0 918.5Q1089 849 1089 759V0H761V157H752Q722 99 675.5 60.0Q629 21 567.5 0.5Q506 -20 428 -20ZM534 211Q593 211 640.5 235.0Q688 259 716.0 301.0Q744 343 744 398V505Q729 497 706.5 490.0Q684 483 657.0 477.5Q630 472 603.0 467.5Q576 463 551 459Q500 452 464.0 435.0Q428 418 409.0 391.0Q390 364 390 326Q390 289 409.0 263.5Q428 238 460.0 224.5Q492 211 534 211Z" fill="#F5F2ED" transform="translate(217.061 290) scale(0.037109 -0.037109)"/>
<path d="M115 0V1490H464V714H480L800 1118H1197L798 630L1213 0H810L538 427L464 338V0Z" fill="#F5F2ED" transform="translate(259.277 290) scale(0.037109 -0.037109)"/>
<path d="M636 -21Q461 -21 334.0 48.5Q207 118 139.5 247.0Q72 376 72 555Q72 727 139.5 857.0Q207 987 331.0 1059.5Q455 1132 623 1132Q741 1132 839.5 1095.0Q938 1058 1010.5 985.5Q1083 913 1122.5 807.0Q1162 701 1162 562V474H415Q418 399 444 347Q472 289 523.0 260.5Q574 232 642 232Q689 232 727.5 245.0Q766 258 793.5 284.0Q821 310 835 347L1146 296Q1118 200 1049.5 128.5Q981 57 876.5 18.0Q772 -21 636 -21ZM417 677H831Q825 725 810 763Q786 819 740.0 849.0Q694 879 626.0 879.0Q558 879 511.0 848.5Q464 818 440 764Q422 725 417 677Z" fill="#F5F2ED" transform="translate(301.828 290) scale(0.037109 -0.037109)"/>
<path d="M718 1118V859H517V342Q517 298 538.0 276.5Q559 255 606 255Q624 255 656.5 259.0Q689 263 703 267L748 13Q689 -4 634.0 -10.0Q579 -16 530 -16Q352 -16 260.0 67.5Q168 151 168 311V859H20V1118H168V1384H517V1118Z" fill="#F5F2ED" transform="translate(344.973 290) scale(0.037109 -0.037109)"/>
<path d="M115 0V1118H454V914H466Q496 1025 565.5 1078.5Q635 1132 727 1132Q751 1132 777.5 1129.0Q804 1126 826 1120V816Q801 825 760.5 829.5Q720 834 688 834Q624 834 573.0 805.5Q522 777 493.0 727.0Q464 677 464 610V0Z" fill="#F5F2ED" transform="translate(371.492 290) scale(0.037109 -0.037109)"/>
<path d="M428 -20Q321 -20 237.5 16.5Q154 53 107.0 126.5Q60 200 60 310Q60 403 92.5 467.0Q125 531 183.0 571.0Q241 611 316.0 632.0Q391 653 476 660Q571 668 629.0 677.5Q687 687 714.0 706.0Q741 725 741 759V763Q741 802 723.0 829.0Q705 856 671.0 870.0Q637 884 589 884Q541 884 503.5 870.0Q466 856 442.0 830.0Q418 804 408 769L92 810Q114 906 178.5 978.5Q243 1051 347.5 1091.5Q452 1132 592 1132Q696 1132 786.5 1107.5Q877 1083 945.0 1035.5Q1013 988 1051.0 918.5Q1089 849 1089 759V0H761V157H752Q722 99 675.5 60.0Q629 21 567.5 0.5Q506 -20 428 -20ZM534 211Q593 211 640.5 235.0Q688 259 716.0 301.0Q744 343 744 398V505Q729 497 706.5 490.0Q684 483 657.0 477.5Q630 472 603.0 467.5Q576 463 551 459Q500 452 464.0 435.0Q428 418 409.0 391.0Q390 364 390 326Q390 289 409.0 263.5Q428 238 460.0 224.5Q492 211 534 211Z" fill="#F5F2ED" transform="translate(400.906 290) scale(0.037109 -0.037109)"/>
<path d="M634 -21Q459 -21 333.0 51.5Q207 124 139.5 253.5Q72 383 72 555Q72 728 139.5 857.5Q207 987 333.0 1059.5Q459 1132 634 1132Q741 1132 830.0 1104.0Q919 1076 986.0 1024.5Q1053 973 1094.5 899.5Q1136 826 1149 735L827 681Q819 725 802.5 759.0Q786 793 762.5 817.0Q739 841 707.5 853.0Q676 865 638 865Q571 865 524.0 828.5Q477 792 452.5 722.5Q428 653 428 557Q428 461 452.5 391.0Q477 321 524.0 283.5Q571 246 638 246Q677 246 708.0 258.5Q739 271 763.5 295.5Q788 320 804.5 355.5Q821 391 828 436L1150 384Q1137 290 1095.5 215.5Q1054 141 987.0 88.0Q920 35 830.5 7.0Q741 -21 634 -21Z" fill="#F5F2ED" transform="translate(443.123 290) scale(0.037109 -0.037109)"/>
<path d="M115 0V1490H464V714H480L800 1118H1197L798 630L1213 0H810L538 427L464 338V0Z" fill="#F5F2ED" transform="translate(485.859 290) scale(0.037109 -0.037109)"/>
<path d="M643 -20Q492 -20 374.5 32.0Q257 84 188.5 176.0Q120 268 116 390H347Q352 324 391.5 276.0Q431 228 496.0 202.0Q561 176 641 176Q729 176 796.0 206.0Q863 236 901.5 290.5Q940 345 940 417Q940 492 902.0 548.5Q864 605 792.0 637.0Q720 669 617 669H490V855H617Q699 855 762.0 884.5Q825 914 860.0 967.0Q895 1020 895 1091Q895 1160 864.0 1211.0Q833 1262 777.0 1290.5Q721 1319 645 1319Q573 1319 510.5 1292.5Q448 1266 409.0 1218.0Q370 1170 367 1102H147Q151 1223 218.5 1315.0Q286 1407 398.5 1458.5Q511 1510 649 1510Q792 1510 897.5 1454.0Q1003 1398 1060.0 1305.5Q1117 1213 1117 1104Q1117 978 1047.0 891.5Q977 805 860 774V763Q959 748 1029.0 699.5Q1099 651 1135.0 577.0Q1171 503 1171 409Q1171 286 1103.0 189.0Q1035 92 915.5 36.0Q796 -20 643 -20Z" fill="#F5F2ED" transform="translate(175.369 335) scale(0.006836 -0.006836)"/>
<path d="M649 0H165V1490H664Q884 1490 1041.0 1401.0Q1198 1312 1282.0 1145.5Q1366 979 1366 747Q1366 514 1281.5 347.0Q1197 180 1036.5 90.0Q876 0 649 0ZM393 200H637Q806 200 918.0 263.0Q1030 326 1086.0 448.5Q1142 571 1142 747Q1142 922 1086.5 1043.0Q1031 1164 921.5 1227.0Q812 1290 649 1290H393Z" fill="#F5F2ED" transform="translate(189.146 335) scale(0.006836 -0.006836)"/>
<path d="M165 0V1490H699Q871 1490 986.0 1426.0Q1101 1362 1158.0 1253.0Q1215 1144 1215.0 1006.0Q1215 868 1157.5 758.5Q1100 649 985.0 585.5Q870 522 697 522H393V0ZM393 715H675Q785 715 853.0 753.0Q921 791 952.5 857.0Q984 923 984 1006Q984 1090 952.5 1155.5Q921 1221 852.5 1258.0Q784 1295 673 1295H393Z" fill="#F5F2ED" transform="translate(212.982 335) scale(0.006836 -0.006836)"/>
<path d="M165 0V1490H699Q871 1490 986.0 1430.5Q1101 1371 1158.0 1265.0Q1215 1159 1215 1022Q1215 884 1157.5 780.5Q1100 677 985 620Q965 610 943 602L1271 0H1012L710 563Q704 563 697 563H393V0ZM393 758H675Q785 758 852.5 789.5Q920 821 952.0 880.0Q984 939 984 1022Q984 1106 952.0 1167.0Q920 1228 852.0 1261.5Q784 1295 673 1295H393Z" fill="#F5F2ED" transform="translate(226.965 335) scale(0.006836 -0.006836)"/>
<path d="M393 1490V0H165V1490Z" fill="#F5F2ED" transform="translate(241.036 335) scale(0.006836 -0.006836)"/>
<path d="M165 0V1490H428L989 603Q1017 559 1052.0 498.0Q1087 437 1126 361Q1147 320 1167 275Q1164 319 1162 363Q1157 446 1155.0 519.0Q1153 592 1153 642V1490H1384V0H1120L617 793Q577 858 538.5 924.0Q500 990 454 1077Q421 1136 379 1214Q383 1145 386 1082Q391 986 393.5 912.5Q396 839 396 795V0Z" fill="#F5F2ED" transform="translate(249.851 335) scale(0.006836 -0.006836)"/>
<path d="M90 1294V1490H1247V1294H784V0H555V1294Z" fill="#F5F2ED" transform="translate(265.439 335) scale(0.006836 -0.006836)"/>
<path d="M165 0V1490H699Q871 1490 986.0 1426.0Q1101 1362 1158.0 1253.0Q1215 1144 1215.0 1006.0Q1215 868 1157.5 758.5Q1100 649 985.0 585.5Q870 522 697 522H393V0ZM393 715H675Q785 715 853.0 753.0Q921 791 952.5 857.0Q984 923 984 1006Q984 1090 952.5 1155.5Q921 1221 852.5 1258.0Q784 1295 673 1295H393Z" fill="#F5F2ED" transform="translate(288.312 335) scale(0.006836 -0.006836)"/>
<path d="M165 0V1490H699Q871 1490 986.0 1430.5Q1101 1371 1158.0 1265.0Q1215 1159 1215 1022Q1215 884 1157.5 780.5Q1100 677 985 620Q965 610 943 602L1271 0H1012L710 563Q704 563 697 563H393V0ZM393 758H675Q785 758 852.5 789.5Q920 821 952.0 880.0Q984 939 984 1022Q984 1106 952.0 1167.0Q920 1228 852.0 1261.5Q784 1295 673 1295H393Z" fill="#F5F2ED" transform="translate(302.294 335) scale(0.006836 -0.006836)"/>
<path d="M786 -20Q593 -20 440.5 71.5Q288 163 200.5 334.5Q113 506 113 744Q113 983 200.5 1154.5Q288 1326 440.5 1418.0Q593 1510 786 1510Q979 1510 1130.5 1418.0Q1282 1326 1369.5 1154.5Q1457 983 1457 744Q1457 506 1369.5 334.5Q1282 163 1130.5 71.5Q979 -20 786 -20ZM786 188Q913 188 1013.5 251.5Q1114 315 1172.5 439.5Q1231 564 1231 744Q1231 926 1172.5 1050.5Q1114 1175 1013.5 1238.5Q913 1302 786 1302Q658 1302 557.0 1238.0Q456 1174 397.5 1049.5Q339 925 339 744Q339 564 397.5 440.0Q456 316 557.0 252.0Q658 188 786 188Z" fill="#F5F2ED" transform="translate(316.365 335) scale(0.006836 -0.006836)"/>
<path d="M552 -20Q344 -20 216.5 98.0Q89 216 89 433V516H318V432Q318 305 382.0 239.0Q446 173 552 173Q658 173 722.0 239.0Q786 305 786 432V1490H1013V434Q1013 216 887.0 98.0Q761 -20 552 -20Z" fill="#F5F2ED" transform="translate(332.098 335) scale(0.006836 -0.006836)"/>
<path d="M165 0V1490H1103V1294H393V850H1052V655H393V196H1109V0Z" fill="#F5F2ED" transform="translate(345.15 335) scale(0.006836 -0.006836)"/>
<path d="M784 -20Q591 -20 439.0 71.5Q287 163 200.0 334.5Q113 506 113 744Q113 983 200.0 1154.5Q287 1326 439.0 1418.0Q591 1510 784 1510Q902 1510 1005.5 1476.0Q1109 1442 1190.5 1377.0Q1272 1312 1325.5 1219.0Q1379 1126 1398 1008H1169Q1155 1079 1119.5 1133.5Q1084 1188 1033.0 1226.0Q982 1264 919.0 1283.0Q856 1302 786 1302Q658 1302 556.5 1237.5Q455 1173 397.0 1048.5Q339 924 339 744Q339 564 398.0 439.5Q457 315 558.0 251.5Q659 188 786 188Q856 188 918.5 207.5Q981 227 1032.5 264.5Q1084 302 1119.5 357.0Q1155 412 1169 482H1399Q1382 372 1330.0 280.5Q1278 189 1197.0 121.0Q1116 53 1011.5 16.5Q907 -20 784 -20Z" fill="#F5F2ED" transform="translate(358.593 335) scale(0.006836 -0.006836)"/>
<path d="M90 1294V1490H1247V1294H784V0H555V1294Z" fill="#F5F2ED" transform="translate(373.86 335) scale(0.006836 -0.006836)"/>
<path d="M90 1294V1490H1247V1294H784V0H555V1294Z" fill="#F5F2ED" transform="translate(396.732 335) scale(0.006836 -0.006836)"/>
<path d="M165 0V1490H699Q871 1490 986.0 1430.5Q1101 1371 1158.0 1265.0Q1215 1159 1215 1022Q1215 884 1157.5 780.5Q1100 677 985 620Q965 610 943 602L1271 0H1012L710 563Q704 563 697 563H393V0ZM393 758H675Q785 758 852.5 789.5Q920 821 952.0 880.0Q984 939 984 1022Q984 1106 952.0 1167.0Q920 1228 852.0 1261.5Q784 1295 673 1295H393Z" fill="#F5F2ED" transform="translate(410.872 335) scale(0.006836 -0.006836)"/>
<path d="M51 0 581 1490H861L1401 0H1154L1017 393H431L298 0ZM950 583 864 829Q830 930 790 1067Q758 1173 720 1311Q682 1171 651 1064Q610 925 579 829L496 583Z" fill="#F5F2ED" transform="translate(424.943 335) scale(0.006836 -0.006836)"/>
<path d="M784 -20Q591 -20 439.0 71.5Q287 163 200.0 334.5Q113 506 113 744Q113 983 200.0 1154.5Q287 1326 439.0 1418.0Q591 1510 784 1510Q902 1510 1005.5 1476.0Q1109 1442 1190.5 1377.0Q1272 1312 1325.5 1219.0Q1379 1126 1398 1008H1169Q1155 1079 1119.5 1133.5Q1084 1188 1033.0 1226.0Q982 1264 919.0 1283.0Q856 1302 786 1302Q658 1302 556.5 1237.5Q455 1173 397.0 1048.5Q339 924 339 744Q339 564 398.0 439.5Q457 315 558.0 251.5Q659 188 786 188Q856 188 918.5 207.5Q981 227 1032.5 264.5Q1084 302 1119.5 357.0Q1155 412 1169 482H1399Q1382 372 1330.0 280.5Q1278 189 1197.0 121.0Q1116 53 1011.5 16.5Q907 -20 784 -20Z" fill="#F5F2ED" transform="translate(439.869 335) scale(0.006836 -0.006836)"/>
<path d="M165 0V1490H393V1014L389 716Q407 741 425 765Q473 831 526.0 895.0Q579 959 639 1027L1057 1490H1347L761 844L1353 0H1083L602 692L393 467V0Z" fill="#F5F2ED" transform="translate(455.137 335) scale(0.006836 -0.006836)"/>
<path d="M393 1490V0H165V1490Z" fill="#F5F2ED" transform="translate(469.762 335) scale(0.006836 -0.006836)"/>
<path d="M165 0V1490H428L989 603Q1017 559 1052.0 498.0Q1087 437 1126 361Q1147 320 1167 275Q1164 319 1162 363Q1157 446 1155.0 519.0Q1153 592 1153 642V1490H1384V0H1120L617 793Q577 858 538.5 924.0Q500 990 454 1077Q421 1136 379 1214Q383 1145 386 1082Q391 986 393.5 912.5Q396 839 396 795V0Z" fill="#F5F2ED" transform="translate(478.576 335) scale(0.006836 -0.006836)"/>
<path d="M791 -20Q589 -20 436.5 73.0Q284 166 198.5 337.5Q113 509 113 744Q113 982 199.5 1153.5Q286 1325 437.0 1417.5Q588 1510 781 1510Q901 1510 1005.5 1474.5Q1110 1439 1192.5 1373.5Q1275 1308 1328.5 1217.5Q1382 1127 1400 1019H1166Q1146 1084 1111.0 1136.5Q1076 1189 1027.5 1226.0Q979 1263 917.5 1282.5Q856 1302 783 1302Q657 1302 556.5 1238.0Q456 1174 397.5 1049.5Q339 925 339.0 745.0Q339 565 397.5 441.0Q456 317 558.0 252.5Q660 188 792 188Q912 188 1001.5 236.5Q1091 285 1141 375Q1188 460 1190 576H825V764H1413V593Q1413 405 1332.5 267.5Q1252 130 1112.0 55.0Q972 -20 791 -20Z" fill="#F5F2ED" transform="translate(494.165 335) scale(0.006836 -0.006836)"/>
</svg>
